<svg width="3213" height="761" viewBox="0 0 3213 761" fill="none" xmlns="http://www.w3.org/2000/svg">
<g filter="url(#filter0_d_2654_840)">
<path d="M384.099 419.746L383.854 419.747C383.936 419.747 384.018 419.747 384.099 419.746L496.02 419.113C500.079 419.113 509.992 415.944 517.171 403.267C524.349 390.589 546.227 357.416 556.268 342.414L498.583 247.333L398.596 412.775C397.115 415.076 392.159 419.655 384.099 419.746Z" fill="#FFAB8F"/>
<path d="M444.052 148.411L484.207 81.9019C486.544 78.4911 492.401 76.5 497.5 76.5C503.874 76.5 509.731 74.7467 514.163 81.9019C520.897 92.7736 633.989 285.906 694.539 390.147C698.364 397.821 701.55 415.088 694.539 424.681C684.945 437.809 675.567 440.422 665.857 441.308C658.846 441.948 645.462 441.948 645.462 441.948H611.681L499.503 245.617L410.632 399.74C399 414 397.158 414 389 414C380.842 414 376.434 410.139 360.5 382L273.236 245.617L148.311 464.97C138.538 483.303 125.493 531.479 151.498 577.524C154.509 582.856 158.202 587.643 162.39 591.941C196.965 613.166 233.73 626.401 258.499 629.606C260.139 629.787 261.333 629.91 262 630C260.862 629.892 259.695 629.761 258.499 629.606C243.511 627.957 191.217 621.524 162.39 591.941C99.5605 553.371 43.9664 488.417 80.7494 409.332C138.751 284.627 203.55 165.465 257.301 83.1809C260.686 78 269.5 76 272 76C277.5 76 284.802 76.5122 295 92.5C303.158 105.29 358.431 198.293 386.051 245.617L444.052 148.411Z" fill="url(#paint0_linear_2654_840)"/>
<path d="M444.052 148.411L484.207 81.9019C486.544 78.4911 492.401 76.5 497.5 76.5C503.874 76.5 509.731 74.7467 514.163 81.9019C520.897 92.7736 633.989 285.906 694.539 390.147C698.364 397.821 701.55 415.088 694.539 424.681C684.945 437.809 675.567 440.422 665.857 441.308C658.846 441.948 645.462 441.948 645.462 441.948H611.681L499.503 245.617L410.632 399.74C399 414 397.158 414 389 414C380.842 414 376.434 410.139 360.5 382L273.236 245.617L148.311 464.97C138.538 483.303 125.493 531.479 151.498 577.524C154.509 582.856 158.202 587.643 162.39 591.941C196.965 613.166 233.73 626.401 258.499 629.606C260.139 629.787 261.333 629.91 262 630C260.862 629.892 259.695 629.761 258.499 629.606C243.511 627.957 191.217 621.524 162.39 591.941C99.5605 553.371 43.9664 488.417 80.7494 409.332C138.751 284.627 203.55 165.465 257.301 83.1809C260.686 78 269.5 76 272 76C277.5 76 284.802 76.5122 295 92.5C303.158 105.29 358.431 198.293 386.051 245.617L444.052 148.411Z" fill="url(#paint1_linear_2654_840)"/>
<path d="M444.052 148.411L484.207 81.9019C486.544 78.4911 492.401 76.5 497.5 76.5C503.874 76.5 509.731 74.7467 514.163 81.9019C520.897 92.7736 633.989 285.906 694.539 390.147C698.364 397.821 701.55 415.088 694.539 424.681C684.945 437.809 675.567 440.422 665.857 441.308C658.846 441.948 645.462 441.948 645.462 441.948H611.681L499.503 245.617L410.632 399.74C399 414 397.158 414 389 414C380.842 414 376.434 410.139 360.5 382L273.236 245.617L148.311 464.97C138.538 483.303 125.493 531.479 151.498 577.524C154.509 582.856 158.202 587.643 162.39 591.941C196.965 613.166 233.73 626.401 258.499 629.606C260.139 629.787 261.333 629.91 262 630C260.862 629.892 259.695 629.761 258.499 629.606C243.511 627.957 191.217 621.524 162.39 591.941C99.5605 553.371 43.9664 488.417 80.7494 409.332C138.751 284.627 203.55 165.465 257.301 83.1809C260.686 78 269.5 76 272 76C277.5 76 284.802 76.5122 295 92.5C303.158 105.29 358.431 198.293 386.051 245.617L444.052 148.411Z" stroke="#FF6938" stroke-width="10.9455"/>
<path d="M444.052 148.411L484.207 81.9019C486.544 78.4911 492.401 76.5 497.5 76.5C503.874 76.5 509.731 74.7467 514.163 81.9019C520.897 92.7736 633.989 285.906 694.539 390.147C698.364 397.821 701.55 415.088 694.539 424.681C684.945 437.809 675.567 440.422 665.857 441.308C658.846 441.948 645.462 441.948 645.462 441.948H611.681L499.503 245.617L410.632 399.74C399 414 397.158 414 389 414C380.842 414 376.434 410.139 360.5 382L273.236 245.617L148.311 464.97C138.538 483.303 125.493 531.479 151.498 577.524C154.509 582.856 158.202 587.643 162.39 591.941C196.965 613.166 233.73 626.401 258.499 629.606C260.139 629.787 261.333 629.91 262 630C260.862 629.892 259.695 629.761 258.499 629.606C243.511 627.957 191.217 621.524 162.39 591.941C99.5605 553.371 43.9664 488.417 80.7494 409.332C138.751 284.627 203.55 165.465 257.301 83.1809C260.686 78 269.5 76 272 76C277.5 76 284.802 76.5122 295 92.5C303.158 105.29 358.431 198.293 386.051 245.617L444.052 148.411Z" stroke="url(#paint2_linear_2654_840)" stroke-width="10.9455"/>
<path d="M497.523 71.0384L497.279 71.037C497.361 71.037 497.442 71.0375 497.523 71.0384L609.041 71.6756C613.086 71.6756 622.964 74.8688 630.117 87.6416C637.269 100.414 659.068 133.837 669.074 148.951L611.596 244.747L511.968 78.062C510.493 75.7437 505.554 71.1303 497.523 71.0384Z" fill="#2B2D42"/>
<path d="M272.093 71.0384L271.849 71.037C271.931 71.037 272.012 71.0375 272.093 71.0384L383.611 71.6756C387.656 71.6756 397.533 74.8688 404.686 87.6416C411.839 100.414 433.638 133.837 443.643 148.951L386.166 244.747L286.538 78.062C285.063 75.7437 280.124 71.1303 272.093 71.0384Z" fill="#2B2D42"/>
<path d="M784.697 352.164L663.994 141.413L593.105 213.58C625.037 268.503 690.306 379.881 693.371 386.012C697.203 393.676 702.951 408.365 693.371 425.608C685.708 439.403 670.167 442 663.355 441.574H273.146L247.601 486.917C244.621 491.601 240.448 504.799 247.601 520.127C254.754 535.454 271.018 538.434 278.256 538.009H679.96C707.421 539.499 768.22 529.068 791.722 475.422C815.224 421.776 796.831 370.898 784.697 352.164Z" fill="#2B2D42"/>
<path d="M174.319 420.858L173.561 420.873C173.83 420.873 174.082 420.867 174.319 420.858L270.634 418.957C274.679 418.957 284.556 422.15 291.709 409.377C298.862 396.604 320.448 359.563 329.389 342.959L273.188 245.885L176.115 413.848C174.674 416.112 181.277 420.567 174.319 420.858Z" fill="#FFAB8F"/>
<path d="M302.567 389.66L248.921 484.179C245.941 489.501 241.002 503.211 245.089 515.472C250.198 530.8 261.055 538.464 278.298 538.464H683.834C704.058 538.464 750.636 530.928 775.16 500.784C800.637 469.468 805.381 429.771 803.691 409.556C802.014 399.539 800.477 395.361 801.983 399.879C802.738 402.144 803.347 405.447 803.691 409.556C806.991 429.277 810.83 471.634 793.042 514.834C771.584 566.947 735.138 595.728 719.598 603.605C704.697 613.61 666.336 634.004 632.105 635.537C597.874 637.069 372.604 636.175 264.248 635.537C238.703 636.388 180.203 625.829 150.57 576.782C113.529 515.472 150.57 461.188 150.57 459.272C150.57 457.739 203.79 364.966 230.4 318.771L302.567 389.66Z" fill="#FFAB8F"/>
<path d="M1330.22 529.172C1298.45 524.491 1278.28 493.859 1283.66 462.196C1289.58 427.278 1323.95 405.306 1359.03 410.17C1379.08 412.95 1397.97 414.339 1415.72 414.339C1451.93 414.339 1481.03 412.872 1503.05 409.937V373.249L1437.01 367.379C1377.32 361.998 1336.23 347.812 1313.72 324.821C1291.71 301.34 1283.65 266.854 1283.65 221.361C1283.65 158.747 1294.15 115.7 1321.06 92.2195C1348.46 68.7393 1394.69 56.9991 1459.75 56.9991C1502.52 56.9991 1542.53 59.6401 1579.8 64.9222C1611.65 69.4372 1632.03 99.9242 1627.06 131.713C1621.8 165.371 1590.21 187.937 1556.31 184.514C1537.99 182.663 1521.95 181.738 1508.19 181.738C1480.79 181.738 1457.55 182.961 1438.47 185.407V221.361L1491.31 226.497C1555.4 232.856 1599.67 248.265 1624.13 272.724C1648.59 296.693 1660.82 330.202 1660.82 373.249C1660.82 404.067 1656.66 430.237 1648.35 451.761C1640.03 472.795 1630 488.938 1618.26 500.189C1607.01 510.951 1590.86 519.266 1569.83 525.137C1548.79 531.007 1530.2 534.431 1514.06 535.409C1498.4 536.877 1477.37 537.61 1450.95 537.61C1408.65 537.61 1368.41 534.798 1330.22 529.172Z" fill="#2B2D42"/>
<path d="M1846.7 469.926C1838.89 503.543 1808.93 527.338 1774.42 527.338C1725.88 527.338 1690.41 481.5 1702.59 434.51L1776.15 150.729C1788.66 102.452 1832.23 68.7394 1882.1 68.7394H1939.46C1989.33 68.7394 2032.89 102.452 2045.41 150.729L2118.97 434.51C2131.15 481.5 2095.68 527.338 2047.14 527.338C2012.63 527.338 1982.67 503.543 1974.86 469.925L1971.32 454.696H1850.24L1846.7 469.926ZM1906.74 209.621L1876.66 338.028H1944.17L1914.82 209.621H1906.74Z" fill="#2B2D42"/>
<path d="M2452.76 301.943C2452.76 332.134 2428.29 356.608 2398.1 356.608H2328.01V453.458C2328.01 493.986 2295.16 526.84 2254.63 526.84C2214.1 526.84 2181.25 493.986 2181.25 453.457V177.697C2181.25 117.246 2230.25 68.2415 2290.7 68.2415H2423.42C2455.84 68.2415 2482.12 94.5227 2482.12 126.942C2482.12 159.362 2455.84 185.643 2423.42 185.643H2328.01V247.278H2398.1C2428.29 247.278 2452.76 271.753 2452.76 301.943Z" fill="#2B2D42"/>
<path d="M2594.46 526.604C2553.93 526.604 2521.08 493.75 2521.08 453.222V141.388C2521.08 100.86 2553.93 68.0055 2594.46 68.0055C2634.99 68.0055 2667.84 100.86 2667.84 141.388V453.222C2667.84 493.75 2634.99 526.604 2594.46 526.604Z" fill="#2B2D42"/>
<path d="M3060.38 423.977C3084.67 470.742 3050.73 526.604 2998.04 526.604C2970.2 526.604 2944.99 510.166 2933.76 484.694L2892.06 390.125H2860.51V453.221C2860.51 493.75 2827.65 526.604 2787.12 526.604C2746.6 526.604 2713.74 493.75 2713.74 453.221V177.461C2713.74 117.01 2762.75 68.0055 2823.2 68.0055H2944.9C3050.08 68.0055 3102.67 121.57 3102.67 228.698C3102.67 302.074 3079.92 350.502 3034.42 373.983L3060.38 423.977ZM2860.51 185.407V277.126H2894.26C2911.87 277.126 2924.59 275.414 2932.42 271.99C2940.74 268.077 2944.9 259.516 2944.9 246.309V216.225C2944.9 203.017 2940.74 194.701 2932.42 191.277C2924.59 187.363 2911.87 185.407 2894.26 185.407H2860.51Z" fill="#2B2D42"/>
<path d="M914.206 77.7814C953.408 77.7814 985.188 109.561 985.188 148.764V415.882H1035.59C1053.57 415.882 1065.87 413.746 1072.5 409.475C1079.12 404.728 1082.43 394.286 1082.43 378.148V146.698C1082.43 106.674 1115.51 74.5651 1155.51 75.7467C1193.88 76.88 1224.4 108.312 1224.4 146.698V331.871C1224.4 372.215 1221.8 404.728 1216.59 429.409C1211.38 454.09 1201.68 474.975 1187.49 492.062C1173.29 509.149 1153.89 521.014 1129.28 527.659C1104.67 534.304 1072.73 537.627 1033.46 537.627C994.179 537.627 962.237 534.304 937.63 527.659C913.496 521.014 894.331 509.149 880.134 492.062C865.938 474.975 856.237 454.09 851.032 429.409C845.826 404.728 843.224 372.215 843.224 331.871V148.764C843.224 109.561 875.003 77.7814 914.206 77.7814Z" fill="#2B2D42"/>
</g>
<defs>
<filter id="filter0_d_2654_840" x="-90.2748" y="-52.9988" width="3346.72" height="886.944" filterUnits="userSpaceOnUse" color-interpolation-filters="sRGB">
<feFlood flood-opacity="0" result="BackgroundImageFix"/>
<feColorMatrix in="SourceAlpha" type="matrix" values="0 0 0 0 0 0 0 0 0 0 0 0 0 0 0 0 0 0 127 0" result="hardAlpha"/>
<feOffset dy="43.782"/>
<feGaussianBlur stdDeviation="76.89"/>
<feComposite in2="hardAlpha" operator="out"/>
<feColorMatrix type="matrix" values="0 0 0 0 0.168627 0 0 0 0 0.176471 0 0 0 0 0.258824 0 0 0 0.37 0"/>
<feBlend mode="normal" in2="BackgroundImageFix" result="effect1_dropShadow_2654_840"/>
<feBlend mode="normal" in="SourceGraphic" in2="effect1_dropShadow_2654_840" result="shape"/>
</filter>
<linearGradient id="paint0_linear_2654_840" x1="49.1152" y1="358.238" x2="726.857" y2="358.238" gradientUnits="userSpaceOnUse">
<stop stop-color="#FF490E"/>
<stop offset="0.9999" stop-color="#FF7B02" stop-opacity="0.9"/>
</linearGradient>
<linearGradient id="paint1_linear_2654_840" x1="49.1152" y1="358.238" x2="726.857" y2="358.238" gradientUnits="userSpaceOnUse">
<stop stop-color="#FF490E"/>
<stop offset="0.9999" stop-color="#FF7B02" stop-opacity="0.9"/>
</linearGradient>
<linearGradient id="paint2_linear_2654_840" x1="49.1152" y1="358.238" x2="726.857" y2="358.238" gradientUnits="userSpaceOnUse">
<stop stop-color="#FF490E"/>
<stop offset="0.9999" stop-color="#FF7B02" stop-opacity="0.9"/>
</linearGradient>
</defs>
</svg>
